<svg width="50" height="50" viewBox="0 0 50 50" fill="none" xmlns="http://www.w3.org/2000/svg">
<path d="M45.7708 38.1876C45.7708 38.9376 45.6041 39.7084 45.25 40.4584C44.8958 41.2084 44.4375 41.9167 43.8333 42.5834C42.8125 43.7084 41.6875 44.5209 40.4166 45.0417C39.1666 45.5626 37.8125 45.8334 36.3541 45.8334C34.2291 45.8334 31.9583 45.3334 29.5625 44.3126C27.1666 43.2917 24.7708 41.9167 22.3958 40.1876C20 38.4376 17.7291 36.5001 15.5625 34.3542C13.4166 32.1876 11.4791 29.9167 9.74996 27.5417C8.04163 25.1667 6.66663 22.7917 5.66663 20.4376C4.66663 18.0626 4.16663 15.7917 4.16663 13.6251C4.16663 12.2084 4.41663 10.8542 4.91663 9.60425C5.41663 8.33341 6.20829 7.16675 7.31246 6.12508C8.64579 4.81258 10.1041 4.16675 11.6458 4.16675C12.2291 4.16675 12.8125 4.29175 13.3333 4.54175C13.875 4.79175 14.3541 5.16675 14.7291 5.70841L19.5625 12.5209C19.9375 13.0417 20.2083 13.5209 20.3958 13.9792C20.5833 14.4167 20.6875 14.8542 20.6875 15.2501C20.6875 15.7501 20.5416 16.2501 20.25 16.7292C19.9791 17.2084 19.5833 17.7084 19.0833 18.2084L17.5 19.8542C17.2708 20.0834 17.1666 20.3542 17.1666 20.6876C17.1666 20.8542 17.1875 21.0001 17.2291 21.1667C17.2916 21.3334 17.3541 21.4584 17.3958 21.5834C17.7708 22.2709 18.4166 23.1667 19.3333 24.2501C20.2708 25.3334 21.2708 26.4376 22.3541 27.5417C23.4791 28.6459 24.5625 29.6667 25.6666 30.6042C26.75 31.5209 27.6458 32.1459 28.3541 32.5209C28.4583 32.5626 28.5833 32.6251 28.7291 32.6876C28.8958 32.7501 29.0625 32.7709 29.25 32.7709C29.6041 32.7709 29.875 32.6459 30.1041 32.4167L31.6875 30.8542C32.2083 30.3334 32.7083 29.9376 33.1875 29.6876C33.6666 29.3959 34.1458 29.2501 34.6666 29.2501C35.0625 29.2501 35.4791 29.3334 35.9375 29.5209C36.3958 29.7084 36.875 29.9792 37.3958 30.3334L44.2916 35.2292C44.8333 35.6042 45.2083 36.0417 45.4375 36.5626C45.6458 37.0834 45.7708 37.6042 45.7708 38.1876Z" stroke="white" stroke-width="3" stroke-miterlimit="10"/>
</svg>
